<svg width="498" height="123" viewBox="0 0 498 123" fill="none" xmlns="http://www.w3.org/2000/svg">
<path d="M275.379 78.159H246.406L240.694 91.5694H229.602L255.677 33.623H266.273L292.432 91.5694H281.174L275.379 78.159ZM271.82 69.7154L260.893 44.3845L250.048 69.7154H271.82Z" fill="#FDFEFF"/>
<path d="M299.356 33.623H310.117V82.4636H340.415V91.5694H299.356V33.623Z" fill="#FDFEFF"/>
<path d="M348.911 33.623H359.672V82.4636H389.97V91.5694H348.911V33.623Z" fill="#FDFEFF"/>
<path d="M441.512 82.5463V91.5694H398.052V33.623H440.353V42.6461H408.814V57.7122H436.793V66.5697H408.814V82.5463H441.512Z" fill="#FDFEFF"/>
<path d="M467.747 42.7289H448.542V33.623H497.713V42.7289H478.508V91.5694H467.747V42.7289Z" fill="#FDFEFF"/>
<path d="M242.562 33.6258L218.97 91.5675L209.271 91.5722L195.866 48.6919L182.229 91.5722H172.67L149.219 33.6258H159.936L177.193 77.9134L191.45 33.6258H200.748L214.462 77.9134L231.65 33.6211L242.562 33.6258Z" fill="#FDFEFF"/>
<path d="M73.6293 76.9239V122.642H55.0156V73.1L113.039 0H132.135L82.2183 64.5816L135.946 122.642H113.062L73.6293 76.9239Z" fill="#4CB8E9"/>
<path fill-rule="evenodd" clip-rule="evenodd" d="M18.2487 37.2461V15.2511H84.4123L96.5288 0.0142659L0.71875 0V59.2716L18.2487 37.2461ZM18.2887 58.0243L0.71875 80.1537V122.71H18.2487V73.1001H38.3887L50.4813 58.0243H18.2887Z" fill="#4CB8E9"/>
</svg>
